<?xml version="1.0" encoding="UTF-8"?>
<svg id="Calque_2" data-name="Calque 2" xmlns="http://www.w3.org/2000/svg" xmlns:xlink="http://www.w3.org/1999/xlink" viewBox="0 0 148 141">
  <defs>
    <style>
      .cls-1 {
        fill: #fff;
        filter: url(#outer-glow-1);
        stroke: #ffda00;
        stroke-miterlimit: 10;
        stroke-width: 2px;
      }
    </style>
    <filter id="outer-glow-1" x="0" y="0" width="148" height="141" filterUnits="userSpaceOnUse">
      <feOffset dx="0" dy="0"/>
      <feGaussianBlur result="blur" stdDeviation="10"/>
      <feFlood flood-color="#ffe650" flood-opacity=".8"/>
      <feComposite in2="blur" operator="in"/>
      <feComposite in="SourceGraphic"/>
    </filter>
  </defs>
  <g id="elements">
    <path class="cls-1" d="M115.71,58.46c-2.2-6.36-6.69-11.28-12.64-13.84-8.12-3.5-17.89-2.55-24.85,1.96-3.25-7.63-10.83-13.87-19.52-15.5-6.37-1.2-12.83.37-18.21,4.42-5.87,4.42-9.64,11.16-10.34,18.51-.86,9.01,2.67,16.42,6.23,22.49.96,1.63,3.05,2.18,4.69,1.22,1.63-.96,2.18-3.06,1.22-4.69-4.26-7.26-5.85-12.75-5.31-18.37.52-5.43,3.3-10.42,7.63-13.68,3.82-2.88,8.38-4,12.83-3.16,7.7,1.45,14.67,8.29,15.54,15.26.17,1.34,1.11,2.46,2.4,2.85,1.29.39,2.69,0,3.58-1.03,4.61-5.29,14.22-7.08,21.41-3.98,4.16,1.79,7.31,5.27,8.88,9.79,1.77,5.13,1.3,10.82-1.31,15.62-4.68,8.61-14.45,12.48-26.81,17.39-6.06,2.4-12.82,5.09-19.94,8.7-3.89-6.97-7.99-12.97-11.67-18.34l-.2-.3c-1.07-1.56-3.2-1.96-4.76-.89-1.56,1.07-1.96,3.2-.89,4.76l.2.3c4.09,5.98,8.73,12.75,12.89,20.66.43.81,1.16,1.41,2.03,1.68.33.1.66.15,1,.15.56,0,1.12-.14,1.62-.41,7.88-4.24,15.51-7.27,22.24-9.94,13.12-5.2,24.44-9.7,30.3-20.49,3.52-6.48,4.17-14.18,1.77-21.12Z"/>
  </g>
</svg>