<svg enable-background="new 0 0 822.3 219.1" viewBox="0 0 822.3 219.1" xmlns="http://www.w3.org/2000/svg"><path d="m243 166.9c.3-.1.6-.2.9-.3 0 0 .5-.2.7-.2 3-1 9.7-4.5 12.2-9.5 5.1-1.9 8.8-4.5 11.1-7.6 4.4-.8 7.8-2.7 9.7-3.7 4.4-2.5 7.5-4.9 9.4-7.5 1.6-2.1 2.6-3.7 3.4-5.4 1.5-.8 3.2-1.8 5.4-3.3 7.7-5.1 9.3-14.5 9.5-15.6 0-.2.1-.5.1-.7h1.2c7.7 0 17.8-4.8 23.2-7.5h.1c.8-.4 1.6-.8 1.9-.9 1.8-.8 5.5-2.8 9.3-5.3 4.9-3.3 8.2-6.3 10-9.1.3-.4.5-.9.7-1.4l3.2-2c.9-.6 1.7-1.4 2.2-2.4.9-.5 1.6-.9 1.8-1.1 2.5-1.6 3.6-4.4 2.7-7.1v-.1c-.8-2.4-3-5.3-6.7-6.2-1.3-2.8-4.1-4.4-7.2-4.4-.7 0-1.3.1-1.7.2-.2 0-1 .2-7 1.7l-8.9 2.1c.8-2.2.7-4.6-.3-6.6-1.2-2.5-3.7-4.1-6.3-4.1-.9 0-1.8.2-2.6.6h-.1c-.3.2-1 .5-16.9 10.8-.2.1-.4.3-.6.4-7.7 6.7-10.5 10.7-11.2 11.7-.4.5-1 1.5-1.6 2.8-.4-.2-.8-.4-1.2-.6-3.2-1.4-6.5-2.1-9.9-2.1-6.1 0-10.4 2.4-11.5 3.1-.6.3-2.9 1.7-6.3 4.4-1.4 1.1-2.6 2.3-3.7 3.7-2.3.5-4.2 1.2-5.6 1.9-1.8.9-3.5 2.3-5.4 3.8l-.1.1c-.3.3-.6.5-1 .8-.8.6-2.9 2.3-4.9 5.1h-.2c-.3.1-2.8.6-6 2.1-.8.4-1.6.8-2.3 1.3-1.8.1-4.6.4-8.3 1.5h-.2c-.3-.1-3.1-.6-6.5-.6-1.5 0-2.9.1-4.1.3-.8.1-3.7.6-6.1 1.3-1.2.3-4.1 1.3-7.5 3.5-7.3-1.7-14.6-2.2-19.2-2.4 4.4-5.9 6.5-12.7 5.8-18.5-1.4-11-8.8-17.5-11.5-19.4-4.6-19.2-18-27.4-29-28.6-2.2-2.5-6.3-4.1-11-4.1-1.9 0-3.7.2-5.5.7-5.9 1.6-10.6 6.1-11.5 11-5.9 4.9-15.1 15.9-12.5 35.6-2.2 3-6.5 10.6-3.6 22.2 2 7.9 6.9 13.6 14.3 16.6-5.7 2.8-10.7 6.1-14.9 10-.3.2-.5.5-.7.7-9.9.5-18.9 4.6-26 11.9-5.1 5.2-8.6 11.2-10.8 16.5h179.3z"/><path d="m242.6 160.6c-2.1.7-5.7 2.1-10.7 2.1-.2 0-.3 0-.5 0-5.2-.1-11.4-2.8-15.8-7.7-4.5-4.9-6.9-12.3-6.2-19.6s5.1-13.4 10.4-16.7c1.2-.8 2.5-1.4 3.8-1.8.5-.2 1.1-.4 1.6-.5-.1.1-.2.3-.3.4-5.4 8-5 18.3-2.4 24.4 1.4 3.2 3 5.8 4.9 8.1 2.5 3 5.5 5.3 8.9 6.8 3.2 1.4 6.5 2.1 9.9 2.1h1.1c-1.7 1.1-3.4 2-4.7 2.4" fill="#fff"/><path d="m253.5 151.7c-2 .7-4.5 1.3-7.3 1.3-2.4 0-5.1-.5-7.8-1.7-5.9-2.6-9.1-7.7-11.1-12.2-2-4.6-2.4-12.8 1.9-19.3 2.4-3.5 5.8-5.6 8.5-6.8-1.7 5.1-2.5 13 3.1 22.5v.1.1c2.8 4.5 6.5 7.9 10.9 10.2 2.6 1.4 5.4 2.3 8.3 2.8-2 1.2-4.4 2.2-6.5 3" fill="#fff"/><path d="m274.5 140.3c-2.4 1.3-5.7 3.1-9.9 3.3-.2 0-.4 0-.6 0-6.3 0-13.9-3-18.8-10.9-8.8-14.8.8-25 4-27.5 1.9-1.5 3.8-3 5.3-3.9-.7 2-1 3.5-1 4-.7 3.7-.1 8.5 1.6 12.8 2.2 5.7 6 10.3 11 13.2 4.1 2.4 8.3 3.6 12.6 3.6 1.2 0 2.3-.1 3.2-.2-2.1 2.4-5.3 4.5-7.4 5.6" fill="#fff"/><path d="m356.1 79.2c-.5.3-1.2.7-1.8 1.1v-.1c-.9-1.5-2.1-2.5-3.6-2.8-2.3-.5-5.2.4-9 2.9-5.6 3.6-14.3 5.7-14.4 5.7-.6.1-1 .7-.8 1.3.1.5.6.9 1.1.9h.3c.4-.1 9.2-2.2 15.1-6 3.2-2.1 5.7-3 7.3-2.6.8.2 1.4.6 1.9 1.5.7 1.1.1 1.7 0 1.7s-2.8 1.8-4 2.5c-.6-.6-1.8-1.6-3.6-1.8-2-.2-4.1.7-6.2 2.7-5.1 4.8-10.6 6.3-10.7 6.4-.6.2-.9.8-.8 1.4.1.5.6.8 1.1.8h.3c.2-.1 6.1-1.7 11.6-6.9 1.6-1.5 3.1-2.2 4.4-2.1s2.1 1 2.3 1.2c.1.1.3.5 0 .9-3.1 4.9-13.9 11.1-17 12.4-2.3 1-11.5 5.9-19 7.5-.8.2-1.7.3-2.5.4-.1 0-.2 0-.3 0-1.1 0-6.2.1-7.7-1.4-2.2-2.2-3-.6-2.3 2.2-2.4 1.5-6 3.6-6.9 4.2-2.5 1.5-5.7-.2-6.3-.2-1.3 0 1.8 3.9 4.4 4.3 2.8.4 8-2.9 8-2.9l2-1.3s-1.2 7.6-6.8 11.4c-3.5 2.3-5 3.1-6.3 3.7-.9.4-3.5 1.8-7.4 1.8-2.8 0-6.1-.7-9.9-2.9-9.1-5.4-10.9-16-10.1-20.7 0 0 1-7 6.4-11.1 3.6-2.8 5.7-4 5.7-4s3.4-2.2 8.4-2.2c2.2 0 4.7.4 7.3 1.6-.8.6-1.5 1.2-1.9 1.7-1 1.6-2.5 5.1-1.5 5.1.7 0 1.2-1.8 3.6-3 1.2-.6 6.8-3.9 6.8-3.9s.2-.9.5-1.4c0 0 .7-1.5 2.1-3.6.1-.1.3-.4.6-.9.8-1.1 1.9-2.4 3.2-3.6 1.5-1.6 3.6-3.6 6.4-6.1 0 0 15.6-10.1 16.3-10.5.1-.1.3-.1.4-.1 1.3 0 3.2 2.3.9 5.4-1.9 2.5-4.1 4.2-5.8 5.5-.5.4-1.2.8-1.7 1-2.4.8-5.5 2.7-6 3.1s-.5 1.1.1.8c2.1-.9 5.4-1.7 6-1.9 3.6-.8 29.7-7.1 30.1-7.2.1 0 .4-.1.6-.1.9 0 2.4.3 2.8 2.2v.2l-23.9 7.1c-.6.2-.9.8-.7 1.4.1.4.5.7.9.8h.5l21.3-6.3c.4-.1 1.2-.3 2.8-.8l.2-.1c.5-.1.9-.2 1.3-.2 2.2 0 3.5 1.8 3.9 2.9.6.4.4.7-0 1" fill="#fff"/><path d="m225 166.9c-1.3-.4-2.7-.9-4-1.5-3.5-1.6-6.7-4-9.2-6.8-2.7-3-4.8-6.7-6.2-10.9-1.3-4.1-1.8-8.6-1.4-12.8.4-4.3 1.9-8.5 4.3-12.2 1.6-2.6 3.7-4.8 6-6.7-.2 0-.5.1-.7.1 0 0-3.1.4-5.3 1.1s-9.8 3.5-13.8 11.3c-4.1 7.8-3.6 14.6-2.7 19s3.6 10.2 6.4 12.9c2.2 2.3 4.7 4.7 8.7 6.4h-9.6c-1.1-1-2-1.9-2.8-2.7-3.8-3.9-6.8-10.8-7.7-15.6-1.6-7.8-.5-15.4 3.2-22.5 1.2-2.2 2.6-4.3 4.3-6.1-8.3-1.5-16.2-1.6-18.8-1.6-.3.6-.7 1.1-1.2 1.6-3 2.6-5.5 3.2-3.7 1.3 1.7-2 1.6-4.1 1.1-4.6-.4-.4-1.1-.1-1.5 0-4.9 1.8-5.8 1-4.8.4 4.4-2.7 6.9-5.1 8.4-6.6 3.7-4.2 6.7-10.3 6-15.9-.8-6.5-4.5-11.7-8.3-14.7-.4-.3-.7-.6-.9-.7-.1-.1-.2-.2-.3-.2-.6-.4-1.4-.9-2-1.1-1-.3-.7-1 .4-1.3-.1-.5-.2-1.1-.4-1.6-.1-.5-.3-1-.4-1.5-4.4-14.6-14.8-20.8-23.4-21.7-.1 0-.2 0-.3 0-2-.2-3.4-.2-3.7-.2-1.4-.2-.8-.8 0-1.1.3-.1.4-.4.3-.6-1-1.5-5.6-2.9-10.4-1.5-2.5.7-4.7 2.3-6 3.9-.2.3-.4.7-.6 1 0 .1-.1.2-.1.3-.2.6.5.4.5.4 2.3-.5 3.3.1 1.5 1.1-1.1.6-2.7 1.7-3.8 2.5-2.6 2-6 5.3-8.4 10.3-2.2 4.6-3.3 10-3.1 15.8.1.8.1 2.4.2 2.9.1.6.5 1.2 1.9 1 1.9-.2 3.1-.6 1.4.8-.7.5-2.9 2.6-4.2 4.2-2.6 3.3-4.6 9.4-2.6 17.1 1.7 6.6 5.8 11 12.3 13.1 3.9 1.1 12.8 2.6 19.7 2.2.7 0 .9.1.8.4s-.6.5-1.3.6c-1.1.2-3.5.6-7.6 1-.9.1-1.6.7-1.7 1.1v.1c-.5 1.8 3.2 3.3 3.6 3.5 1.4.4.8 1.2.2 1.3-2.6.5-7.3-.6-9.8-.8-1.7-.1-3 .2-3.5.5-5.9 2.6-10.9 5.9-15 9.7-4.6 4.3-8.1 9.4-10.4 15-1.4 3.5-2.2 6.8-2.6 9.6h-5.3c.4-3.3 1.3-7.3 3.1-11.6 1.5-3.6 3.3-7 5.6-10.1-6.4 1.3-12.1 4.5-16.9 9.4-3.3 3.3-6.1 7.5-8.4 12.2h-24.1l-3.8 10.4h398.7l3.8-10.4z" fill="#fff"/><path d="m135.6 99.1c-1.4 1-1.7 1.7-1.9 2.2s-.2 1-.1 1.2 0 .5-.2.6c-.2.1-.4 0-.5 0-.1-.1-.2-.2-.3-.3-.4-.9 0-2.9 1-3.8.4-.4.9-.7 1.4-.9.2-.1.7-.3 1 .1.2.4-.1.7-.4.9m32.8-6.4c-.3.1-.4-.3-.6-.8-.9 1.2-2.9 3.1-3.2 3.5-.4.6-.8 1.2-1.2 1.8-.6 1.1-1.1 2.1-1.9 3.1-1 1.3-2.2 2.5-3.6 3.3-2.7 1.6-6 2.4-9.1 1.9-1.6-.3-3.2-.9-4.7-1.6-1.2-.6-2.5-1.3-3.8-1.4-1.5 0-3.1.1-4.6-.1-.5-.1-1-.3-1.1-.8-.2-.7.3-1.5 1-1.5.2 0 .5.1.7.1.5 0 1 .1 1.5.1 5.4.2 11-.7 16.1-2.3 3.2-1 6.3-2.3 9-4.2 1.1-.8 2.2-1.7 3.1-2.7.1-.2.3-.4.4-.5-.1-.1-.2-.1-.3-.1-.3-.1-.3-.6.2-.7s1.2.1 1.5.4.5.7.6 1.3c.4.4.4 1.1 0 1.2m-7.2 4.6c-4.8 2.6-10.3 4-15.7 4.7 1.5.7 3 1.2 4.6 1.4 1.5.1 2.9-.1 4.3-.5s2.8-1.1 4-2c1.2-1.1 2.1-2.3 2.8-3.6m-30.5-11.6c-.9-1.6-1.4-3.4-1.7-5.2s-.4-3.7 0-5.5c.3-1.8 1.1-3.4 2.6-4.4 1.2-.9 2.7-1.4 4.2-1.4.4 0 .8 0 1.2.1 3.8.8 5.6 3.9 7.1 8.3 1.7 4.8.5 10.8-2.6 12.1-.8.3-2 .7-2 .7-.8.2-1.6.4-2.4.4-.9 0-1.8-.2-2.6-.7-1.7-1.1-2.9-2.8-3.8-4.4m1.3-.7c.9 1.7 2 3 3.2 3.7.6.3 1.2.5 1.9.5.6 0 1.2-.1 2-.3.3-.1 1.3-.4 1.8-.6 1-.4 1.8-1.8 2.2-3.6.1-.7.2-1.4.2-2.1-.2 2.3-1.4 4.1-3 4.4-2.4.6-5.1-2-6-5.8-.2-1-.3-2-.3-2.9.5.6 1.1.9 1.8.7.9-.2 1.4-1.4 1.1-2.6-.3-.9-1-1.6-1.7-1.7.5-.7 1.2-1.2 1.9-1.4 1.8-.4 3.7.8 4.9 3 0-.1-.1-.2-.1-.3-1.2-2.4-3.3-4.9-7.3-3.8-5.3 1.4-4.1 8.3-3.5 10.4.2.8.5 1.6.9 2.4m24.8-1s-.1-.1 0 0c-.1-.1-.1 0 0 0m-6.3-6.5c-.4-1.6-1-4-.8-6.3.2-3.3 1.9-5.2 3.9-5.9 2.5-.8 5.2.5 6.7 2.4.9 1.1 1.7 2.7 2.4 4.3.2.5.5 1.1.7 1.7.6 1.8.9 3.6.8 5.3-.1 1-.2 2-.6 2.8-.3.9-.9 2.1-1.9 2.7-.7.4-1.5.5-2.1.7-.6.1-1.2.2-1.9.2-.4 0-.8 0-1.2-.1-.1 0-.1 0-.2 0h-.1c-1.7-.5-2.7-1.8-3.6-2.9-.7-1-1.2-2.1-1.6-3.1s-.1-.2-.2-.6c-.1-.2-.2-.5-.2-.7-0-.3-0-.4-.1-.5m.9-4.4c0 1.4.2 3 .6 4.4s1 2.8 1.8 4c.7 1 1.6 2 2.9 2.4h.1.1c.3.1.6.1.9.1.5 0 1-.1 1.6-.2s1.2-.3 1.8-.6c.7-.4 1-1.2 1.3-1.9.3-.8.4-1.6.5-2.4.1-1.4-.1-2.9-.6-4.3v.2c.8 3.7-.3 7-2.5 7.5s-4.6-2.1-5.4-5.7c-.2-1-.3-1.9-.3-2.8.4.6 1.1 1 1.8.8.9-.2 1.4-1.4 1.1-2.5-.3-1-1.1-1.7-1.9-1.7.4-.6 1-1.1 1.7-1.2 1.4-.3 2.9.6 4 2.4-.3-.5-.6-1-.9-1.5-.8-1.1-2-2.2-3.4-2.5-.2 0-.5-.1-.7-.1-1.3 0-2.6.6-3.3 1.6-1 1.1-1.2 2.6-1.2 4"/><g fill="#fff"><path d="m448.4 100.9-15.4 41.7h20.2l15.4-41.7zm315.3 0-10.5 28.6c.1-2.9.7-14.3 1.1-20.8.1-2.7-.4-4.8-1.7-6.1-1.6-1.7-3.6-1.7-3.7-1.7h-23.5l-15.4 41.7h17l10.9-29.6-1.3 29.6h28.6l15.4-41.7zm-355.3 0-14.8 22.4s.9-11.7 1.2-14.6c.2-2.1-.1-7.9-5.3-7.9h-23.4l-15.4 41.7h18.3l11.1-30.2-2.3 30.2h16.3l20-29.7-10.9 29.7h18.4l15.4-41.7h-28.6zm154.4 0-5.6 15h-10.2l5.5-15h-19.3l-15.2 41.7h19.2l5.2-14.1h10.2l-5.2 14.1h19.2l15.4-41.7zm-66.2.3c-12.2 2.5-28.8 11.5-28.7 27.9.1 9.5 11.5 14.7 24.7 14.4 7.4-.2 14.4-1.5 15.2-1.7l4.9-12.6c-6.4 1-12.6 2.6-17.5.6-8.7-3.5-3.4-12.6 2.8-15.4 2.7-1.2 6.4-2.4 10.9-2.3 1.8 0 6.4.1 8.1 4.1l6.1-14.7c-10.5-2.6-21-1.4-26.5-.3zm111.9 10.6h23.1l4.1-10.9h-42.1l-15.4 41.7h42.6l4.1-11.3h-23.5l1.7-4.6h22l3.8-10.3h-22zm85.2-10.9-15.4 41.7h20.2l15.4-41.7zm-27.5 0h-19.7l-15.4 41.7h39.5l5.1-13.9h-19.8z"/><path d="m763.7 100.9-10.5 28.6c.1-2.9.7-14.3 1.1-20.8.1-2.7-.4-4.8-1.7-6.1-1.6-1.7-3.6-1.7-3.7-1.7h-23.5l-15.4 41.7h17l10.9-29.6-1.3 29.6h28.6l15.4-41.7z"/><path d="m408.4 100.9-14.8 22.4s.9-11.7 1.2-14.6c.2-2.1-.1-7.9-5.3-7.9h-23.4l-15.4 41.7h18.3l11.1-30.2-2.3 30.2h16.3l20-29.7-10.9 29.7h18.4l15.4-41.7h-28.6z"/><path d="m562.8 100.9-5.6 15h-10.1l5.5-15h-19.3l-15.3 41.7h19.2l5.2-14.1h10.2l-5.2 14.1h19.2l15.4-41.7z"/><path d="m496.6 101.2c-12.2 2.5-28.8 11.5-28.7 27.9.1 9.5 11.5 14.7 24.7 14.4 7.4-.2 14.4-1.5 15.2-1.7l4.9-12.6c-6.4 1-12.6 2.6-17.5.6-8.7-3.5-3.4-12.6 2.8-15.4 2.7-1.2 6.4-2.4 10.9-2.3 1.8 0 6.4.1 8.1 4.1l6.1-14.7c-10.5-2.6-21-1.4-26.5-.3z"/><path d="m608.5 111.8h23l4.1-10.9h-42.2l-15.3 41.7h42.6l4.1-11.3h-23.5l1.7-4.6h22l3.7-10.3h-21.9z"/><path d="m693.7 100.9-15.4 41.7h20.2l15.4-41.7z"/><path d="m666.2 100.9h-19.7l-15.3 41.7h39.4l5.2-13.9h-19.9z"/><path d="m472.9 173.9h-7.3l-2.5 3.4h-2.6l9.8-12.9c.5-.7.9-.9 1.7-.9h2.6l.9 13.8h-2.3zm-.5-9.1-5.5 7.4h5.9z"/><path d="m488.3 163.6h7.1c3.6 0 4.9 1.8 4 4.2-.6 1.5-1.8 2.4-3.5 2.7 1.9.5 2.6 2.1 1.9 3.9-.9 2.3-3 3-5.6 3h-8.9zm-.4 7.7-1.6 4.3h5.2c2.5 0 3.5-.4 4-1.7.6-1.7-.4-2.6-3-2.6zm2.2-5.9-1.6 4.2h3.9c2.5 0 4-.4 4.5-2 .6-1.7-.2-2.3-2.5-2.3h-4.3z"/><path d="m505.2 163.6h11.5l-.7 1.8h-9l-1.5 4.2h8.1l-.7 1.8h-8.1l-1.5 4.2h9l-.7 1.8h-11.5z"/><path d="m526 165.4-4.4 12h-2.4l4.4-12h-5.5l.7-1.9h13.3l-.7 1.9z"/><path d="m541.7 165.4-4.4 12h-2.4l4.4-12h-5.5l.7-1.9h13.3l-.7 1.9z"/><path d="m550.4 163.6h11.5l-.7 1.8h-9l-1.5 4.2h8.1l-.7 1.8h-8.1l-1.5 4.2h9l-.7 1.8h-11.5z"/><path d="m568.6 172.6h-4.3l-1.7 4.8h-2.4l5-13.8h5.4c4.9 0 6.2 2.1 5 5.3-.8 2.3-2.6 3.2-4.8 3.4l2 5.1h-2.5zm-1.7-7.2-2 5.4h3.3c3.1 0 4.4-.4 5-2.2.8-2.3.2-3.2-3.3-3.2z"/><path d="m584.9 163.6h2.4l-.1 12.2 8-12.2h3.4l-.3 12.2 8-12.2h2.6l-8.8 12.9c-.4.7-1 .9-1.5.9h-2.6l.2-12.1-7.4 11.2c-.4.7-1 .9-1.6.9h-2.4v-13.8z"/><path d="m616.4 173.9h-7.3l-2.5 3.4h-2.6l9.8-12.9c.5-.7.9-.9 1.7-.9h2.6l.9 13.8h-2.3zm-.5-9.1-5.5 7.4h5.9z"/><path d="m623.1 177.4 2.2-6-3.6-7.8h2.4l2.9 6.1 7.4-6.1h2.9l-9.6 8-2.1 5.8z"/><path d="m644.4 172.1-1.9 5.2h-2.5l5-13.8h11.5l-.7 1.8h-9l-1.8 4.9h8.2l-.7 1.8h-8.1z"/><path d="m655.7 169.9c1.6-4.5 4.4-6.6 9.1-6.6 6.1 0 7.4 3.6 5.9 7.7-1.7 4.5-4.4 6.6-9.1 6.6-6.1 0-7.4-3.6-5.9-7.7zm12.7.8c1.2-3.5.2-5.5-3.7-5.5-3.2 0-5.2 1.2-6.5 5-1.3 3.5-.2 5.5 3.7 5.5 3.1 0 5.1-1.2 6.5-5z"/><path d="m680.2 172.6h-4.3l-1.7 4.8h-2.4l5-13.8h5.4c4.9 0 6.2 2.1 5 5.3-.8 2.3-2.6 3.2-4.8 3.4l2 5.1h-2.5zm-1.7-7.2-2 5.4h3.3c3.1 0 4.4-.4 5-2.2.8-2.3.2-3.2-3.3-3.2z"/><path d="m690.6 163.6h2.4l-.1 12.2 8-12.2h3.4l-.3 12.2 8-12.2h2.6l-8.8 12.9c-.4.7-1 .9-1.5.9h-2.6l.2-12.1-7.4 11.2c-.4.7-1 .9-1.6.9h-2.4v-13.8z"/><path d="m722.1 173.9h-7.3l-2.5 3.4h-2.6l9.8-12.9c.5-.7.9-.9 1.7-.9h2.6l.9 13.8h-2.3zm-.5-9.1-5.5 7.4h5.9z"/><path d="m735.3 172.6h-4.3l-1.7 4.8h-2.4l5-13.8h5.4c4.9 0 6.2 2.1 5 5.3-.8 2.3-2.6 3.2-4.8 3.4l2 5.1h-2.5zm-1.7-7.2-2 5.4h3.3c3.1 0 4.4-.4 5-2.2.8-2.3.2-3.2-3.3-3.2z"/><path d="m747.9 163.6h5.7c5.2 0 6.7 3.5 5.2 7.5-1.6 4.3-4.2 6.4-9.1 6.4h-6.9zm1.8 1.8-3.7 10.2h3.8c3.6 0 5.4-1.2 6.7-4.9 1.2-3.2.1-5.3-3.1-5.3z"/></g></svg>