<svg viewBox="0 0 1767.8 585.4" xmlns="http://www.w3.org/2000/svg" xmlns:xlink="http://www.w3.org/1999/xlink"><linearGradient id="a" gradientUnits="userSpaceOnUse" x1="632.1" x2="1610.1" y1="362" y2="165"><stop offset="0" stop-color="#3898ff"/><stop offset="1" stop-color="#4c33ff"/></linearGradient><linearGradient id="b" x1="635.4" x2="1613.4" xlink:href="#a" y1="378.3" y2="181.3"/><linearGradient id="c" x1="640.4" x2="1618.4" xlink:href="#a" y1="403.2" y2="206.2"/><linearGradient id="d" x1="644.6" x2="1622.7" xlink:href="#a" y1="424.1" y2="227.1"/><linearGradient id="e" x1="650.2" x2="1628.3" xlink:href="#a" y1="452.1" y2="255"/><linearGradient id="f" x1="654.3" x2="1632.3" xlink:href="#a" y1="472" y2="274.9"/><linearGradient id="g" x1="658.3" x2="1636.3" xlink:href="#a" y1="491.8" y2="294.8"/><linearGradient id="h" x1="663.1" x2="1641.1" xlink:href="#a" y1="515.8" y2="318.7"/><linearGradient id="i" x1="667.4" x2="1645.4" xlink:href="#a" y1="537.2" y2="340.2"/><linearGradient id="j" x1="670.8" x2="1648.9" xlink:href="#a" y1="554.2" y2="357.2"/><linearGradient id="k" x1="128.2" x2="374" xlink:href="#a" y1="277.9" y2="392.5"/><g fill="#00205b"><path d="m618.2 206.3-31.6 86.6h-39.9l42.6-117.2h49.6c12.9 0 16.6 6.5 16.4 19.2l.8 51.3 48.7-70.5h71.3l-42.5 117.2h-46.6l30.9-84.6-60.6 84.6h-39.7l.3-86.6z"/><path d="m760.9 292.8 42.6-117.2h46.1l-42.6 117.2z"/><path d="m940.9 202.7c-21.6 0-38.3 6.3-46.7 30.9-8 23 3.4 32.1 29.5 32.1s26.9-1.8 36.3-4.2l-11.1 30.3c-12.5 3.3-25.2 4.1-38.6 4.1-56 0-75.4-27.3-59.4-70.6 14.8-40.7 48.7-52.4 89-52.4s34.7 3.3 47.9 8l-10.4 29.1c-9-3.9-23.8-7.2-36.5-7.2z"/><path d="m1073.3 248.9h-40l-16 43.9h-46.1l42.6-117.2h46.1l-16 43.8h40l16-43.8h46.1l-42.6 117.2h-46.1z"/><path d="m1173.4 175.7h112.8l-9.8 27h-66.7l-6.5 17.9h60.1l-10.1 27h-59.9l-6.7 18.2h66.7l-9.8 27h-112.8l42.6-117.2z"/><path d="m1308.2 175.7h46.1l-31.9 87.7h60.4l-10.7 29.5h-106.5z"/><path d="m1390.4 292.8 42.6-117.2h46.1l-42.6 117.2z"/><path d="m1534.9 207.1-31.3 85.8h-39.9l42.6-117.2h49.8c11.7 0 15.8 6.7 15.8 17.7l7.3 69 31.6-86.8h40l-42.6 117.2h-66.1l-7.3-85.8z"/></g><path d="m550.5 362.7c10.4-28.3 29-38.9 62-38.9s52.2 21.4 41.8 49.3c-10.5 28.4-29.1 39-61.9 39s-52.4-21.4-41.9-49.4zm71.9 7.4c5.8-16.6 2.3-25.5-13.2-25.5s-20.7 4.8-26.6 21.1c-6 16.6-2.5 25.6 13.2 25.6s20.6-4.8 26.6-21.3z" fill="url(#a)"/><path d="m695 390.4-7.1 19.6h-33l30.6-84.1h42.4c36.7 0 44.3 16.5 36.3 38.3-8.1 21.5-25.1 26.2-49.6 26.2h-19.5zm16.5-45.1-9.3 25.7h8.8c13.7 0 18-2.6 21.3-11.6 3.5-9.7 1.4-14.1-11.2-14.1h-9.5z" fill="url(#b)"/><path d="m790 326h80.9l-7 19.4h-47.9l-4.7 12.8h43.1l-7.2 19.4h-43l-4.8 13.1h47.9l-7 19.4h-80.9z" fill="url(#c)"/><path d="m907.2 348.5-22.4 61.5h-28.6l30.6-84.1h35.7c8.4 0 11.3 4.8 11.3 12.7l5.3 49.5 22.7-62.2h28.7l-30.6 84.1h-47.4z" fill="url(#d)"/><path d="m1013.1 405.5 7.1-19.4c7.9 3.5 20.6 6.3 31.8 6.3s16.8-1.5 18.8-6.2c1.8-4.4 0-6.9-5.1-7.9l-12.7-2.2c-21.4-3.6-25.8-14.4-20.4-29.3 5.8-16.3 21.8-22.9 46.8-22.9s27.3 2.3 38.2 6.3l-6.9 19.3c-6.9-2.9-18.7-5.8-30.5-5.8s-14.6 1.3-16.1 5.4-.3 5.8 4.6 6.9l12.8 2.2c21.8 3.6 26.5 15.4 20.6 31.1-6.7 17.6-22.9 23-46.6 23s-30.8-2.1-42.3-6.7z" fill="url(#e)"/><path d="m1118.5 362.7c10.4-28.3 29-38.9 62-38.9s52.2 21.4 41.8 49.3c-10.5 28.4-29.1 39-61.9 39s-52.4-21.4-41.9-49.4zm71.8 7.4c5.8-16.6 2.3-25.5-13.2-25.5s-20.7 4.8-26.6 21.1c-6 16.6-2.5 25.6 13.2 25.6s20.6-4.8 26.6-21.3z" fill="url(#f)"/><path d="m1329.4 374.5c-10.4 28.8-26.6 37.6-57.5 37.6s-45.8-15.1-37.5-37.8l17.6-48.3h33l-17.9 49.4c-4.1 11-.2 15.5 10 15.5s14-2.5 18.7-15.4l18-49.5h33l-17.6 48.6z" fill="url(#g)"/><path d="m1386.1 385.8h-10.5l-8.9 24.3h-33l30.6-84.1h45c33 0 42.5 13.3 34.8 34.6-4.7 13-14 18.3-27.9 20.3l12.8 29.2h-34zm4.2-40.5-7.7 21h9.3c11.9 0 16.7-.9 19.6-9.2 2.8-7.5 1.3-11.8-11.3-11.8z" fill="url(#h)"/><path d="m1517.7 345.3c-15.5 0-27.4 4.6-33.5 22.2-5.7 16.5 2.5 23 21.1 23s19.3-1.3 26-3l-7.9 21.7c-9 2.3-18.1 2.9-27.7 2.9-40.2 0-54.1-19.6-42.6-50.7 10.6-29.2 34.9-37.6 63.9-37.6s24.9 2.3 34.3 5.7l-7.5 20.9c-6.4-2.8-17.1-5.1-26.2-5.1z" fill="url(#i)"/><path d="m1570.1 326h80.9l-7 19.4h-47.9l-4.7 12.8h43.1l-7.2 19.4h-43l-4.8 13.1h47.9l-7 19.4h-80.9z" fill="url(#j)"/><path d="m189.9 394.8c34.5 34.5 90.8 34.5 125.3 0 11-11 19-24.7 22.9-39.7 8.1-30.5-.6-63.3-22.9-85.6-9.2-9.2-9.2-24.1 0-33.2 9.2-9.2 24.1-9.2 33.2 0 23.1 23.1 36.7 53.6 39.2 85.4 2.3-1.9 4.6-4 6.8-6.1 34.5-34.5 34.5-90.8 0-125.3s-90.8-34.5-125.3 0c-10.4 10.4-18.1 23.4-22.3 37.4-9.2 31.2-.7 64.9 22.3 87.9 9.2 9.2 9.2 24.1 0 33.2s-24.1 9.2-33.2 0c-23.2-23.2-36.8-53.6-39.3-85.3-2.3 1.9-4.6 3.9-6.7 6.1-34.5 34.5-34.5 90.8 0 125.3z" fill="none"/><path d="m427.7 157c-52.9-52.9-138.9-52.9-191.8 0-13.7 13.7-24.3 30.2-31.1 48.2-1.1 3-2.2 6-3.1 9.1-4.8 16.2-6.5 32.8-5.2 49.1 2.5 31.7 16.1 62.1 39.3 85.3 9.2 9.2 24.1 9.2 33.2 0s9.2-24.1 0-33.2c-23-23-31.5-56.7-22.3-87.9 4.2-14 11.9-27 22.3-37.4 34.5-34.5 90.8-34.5 125.3 0s34.5 90.8 0 125.3-4.4 4.2-6.8 6.1c1.2 15.1-.1 30.5-4.1 45.6-1.1 4.3-2.5 8.5-4 12.6 18-6.8 34.5-17.4 48.2-31.1 52.9-52.9 52.9-138.9 0-191.8z" fill="#00205b"/><path d="m387.6 321.7c-2.5-31.8-16.1-62.3-39.2-85.4-9.2-9.2-24.1-9.2-33.2 0-9.2 9.2-9.2 24.1 0 33.2 22.3 22.3 31.1 55.1 22.9 85.6-4 14.9-11.9 28.7-22.9 39.7-34.5 34.5-90.8 34.5-125.3 0s-34.5-90.8 0-125.3c2.1-2.1 4.4-4.2 6.7-6.1-1.3-16.3.4-32.9 5.2-49.1.9-3.1 1.9-6.1 3.1-9.1-18 6.8-34.5 17.4-48.2 31.1-52.9 52.9-52.9 138.9 0 191.8 26.4 26.4 61.2 39.7 95.9 39.7s69.5-13.2 95.9-39.7c13.7-13.7 24.3-30.2 31.1-48.2 1.6-4.1 2.9-8.3 4-12.6 4-15 5.3-30.5 4.1-45.6z" fill="url(#k)"/></svg>