<svg xmlns="http://www.w3.org/2000/svg" fill="none" viewBox="0 0 130 125" height="125" width="130">
<path fill="white" d="M26.3964 94.2759L20.6953 111.141H17.6375L13.2132 98.1958L8.78882 111.141H5.70105L0 94.2759H2.9695L7.36391 107.489L11.9364 94.2759H14.6381L19.1208 107.577L23.6036 94.2759H26.3964Z"></path>
<path fill="white" d="M33.3379 94.2759H36.2176V111.141H33.3379V94.2759Z"></path>
<path fill="white" d="M46.1337 110.828C44.8969 110.462 43.9308 109.972 43.2383 109.358L44.3668 107.101C45.0394 107.655 45.8858 108.101 46.906 108.437C47.9248 108.773 48.9792 108.942 50.0679 108.942C51.393 108.942 52.3691 108.724 52.9918 108.289C53.6159 107.854 53.9265 107.29 53.9265 106.596C53.9265 106.062 53.7427 105.627 53.3765 105.29C53.0103 104.953 52.55 104.695 51.9958 104.517C51.4415 104.339 50.6891 104.151 49.7387 103.953C48.452 103.677 47.4076 103.389 46.6068 103.092C45.806 102.796 45.122 102.326 44.5577 101.682C43.9935 101.039 43.7114 100.163 43.7114 99.0542C43.7114 97.5495 44.3198 96.3369 45.5381 95.4164C46.7549 94.4959 48.4135 94.0356 50.511 94.0356C51.5797 94.0356 52.6142 94.1596 53.6144 94.4061C54.6133 94.6541 55.4697 95.0146 56.1836 95.4905L55.1448 97.8059C53.8581 96.9154 52.285 96.4694 50.4241 96.4694C49.1374 96.4694 48.177 96.6917 47.5443 97.1377C46.9103 97.5822 46.5939 98.1622 46.5939 98.8746C46.5939 99.409 46.7763 99.845 47.1439 100.181C47.5102 100.518 47.9747 100.775 48.5389 100.954C49.1032 101.132 49.8598 101.32 50.8102 101.518C52.1169 101.814 53.1599 102.106 53.9422 102.394C54.723 102.682 55.397 103.142 55.9613 103.775C56.5255 104.409 56.8077 105.26 56.8077 106.328C56.8077 107.871 56.1992 109.1 54.9824 110.01C53.7655 110.921 52.0869 111.375 49.9496 111.375C48.643 111.378 47.3705 111.194 46.1337 110.828Z"></path>
<path fill="white" d="M74.5821 107.133H65.5268L63.7457 111.141H60.9258L68.6459 94.2759H71.4957L79.2444 111.141H76.3347L74.5821 107.133ZM73.5718 104.847L70.068 96.8906L66.5356 104.847H73.5718Z"></path>
<path fill="white" d="M100.923 111.141L100.893 99.4426L95.0741 109.122H93.7376L87.9182 99.7105V111.141H85.1582V94.2759H87.6219L94.4514 105.618L101.161 94.2759H103.655L103.685 111.141H100.923Z"></path>
<path fill="white" d="M115.414 110.251C114.007 109.498 112.91 108.464 112.118 107.147C111.326 105.831 110.93 104.352 110.93 102.709C110.93 101.066 111.326 99.5867 112.118 98.2701C112.909 96.9534 114.007 95.9204 115.414 95.1666C116.819 94.4143 118.383 94.0381 120.105 94.0381C121.846 94.0381 123.415 94.4143 124.811 95.1666C126.206 95.919 127.3 96.9534 128.093 98.2701C128.884 99.5867 129.281 101.066 129.281 102.709C129.281 104.352 128.885 105.832 128.093 107.147C127.3 108.464 126.208 109.498 124.811 110.251C123.416 111.003 121.847 111.379 120.105 111.379C118.383 111.379 116.819 111.003 115.414 110.251ZM123.312 108.083C124.263 107.549 125.009 106.817 125.553 105.886C126.098 104.956 126.37 103.897 126.37 102.709C126.37 101.52 126.098 100.462 125.553 99.5311C125.009 98.6006 124.263 97.8682 123.312 97.3339C122.362 96.7996 121.293 96.5317 120.106 96.5317C118.918 96.5317 117.849 96.7996 116.899 97.3339C115.948 97.8682 115.202 98.6006 114.657 99.5311C114.113 100.462 113.841 101.52 113.841 102.709C113.841 103.897 114.113 104.956 114.657 105.886C115.202 106.817 115.948 107.549 116.899 108.083C117.849 108.618 118.918 108.886 120.106 108.886C121.293 108.884 122.362 108.618 123.312 108.083Z"></path>
<path fill="white" d="M11.516 116.677L8.96829 124.138H7.97798L5.83919 117.985L3.70041 124.138H2.68445L0.136719 116.677H1.12703L3.22592 122.91L5.4046 116.677H6.30229L8.4539 122.935L10.5927 116.677H11.516Z"></path>
<path fill="white" d="M13.4199 116.677H14.3703V124.138H13.4199V116.677Z"></path>
<path fill="white" d="M23.5732 116.677V124.138H22.7809L18.093 118.314V124.138H17.1426V116.677H17.9348L22.6228 122.501V116.677H23.5732Z"></path>
<path fill="white" d="M31.5164 120.4H32.4269V123.266C32.0835 123.574 31.6674 123.81 31.1787 123.973C30.69 124.135 30.177 124.216 29.6398 124.216C28.8746 124.216 28.1835 124.051 27.5666 123.722C26.9496 123.393 26.4665 122.937 26.1146 122.355C25.7626 121.774 25.5859 121.123 25.5859 120.402C25.5859 119.689 25.7598 119.042 26.1075 118.461C26.4551 117.88 26.9353 117.422 27.5466 117.087C28.1579 116.753 28.8433 116.586 29.5999 116.586C30.8495 116.586 31.8099 116.955 32.4782 117.695L31.8712 118.316C31.2727 117.717 30.5204 117.418 29.6127 117.418C29.0314 117.418 28.5084 117.548 28.0411 117.807C27.5737 118.066 27.2075 118.423 26.9382 118.877C26.6703 119.33 26.5349 119.839 26.5349 120.402C26.5349 120.965 26.6689 121.473 26.9382 121.926C27.2061 122.38 27.5765 122.736 28.0467 122.997C28.517 123.256 29.0527 123.386 29.6512 123.386C30.3736 123.386 30.9935 123.209 31.5135 122.857V120.4H31.5164Z"></path>
<path fill="white" d="M38.8272 123.959C38.3028 123.787 37.891 123.562 37.5918 123.279L37.9879 122.54C38.2701 122.795 38.6377 123.004 39.0908 123.167C39.5439 123.329 40.0127 123.411 40.4972 123.411C41.1484 123.411 41.63 123.297 41.9435 123.067C42.2555 122.838 42.4123 122.544 42.4123 122.182C42.4123 121.9 42.3239 121.674 42.1486 121.503C41.972 121.332 41.7525 121.2 41.4889 121.114C41.2253 121.025 40.8677 120.928 40.4188 120.823C39.856 120.69 39.4014 120.559 39.0595 120.427C38.7175 120.294 38.4239 120.09 38.1817 119.813C37.9395 119.535 37.8184 119.164 37.8184 118.697C37.8184 118.071 38.0691 117.564 38.5707 117.172C39.0723 116.78 39.7719 116.585 40.6696 116.585C41.1184 116.585 41.5559 116.642 41.9834 116.758C42.4108 116.872 42.7728 117.035 43.072 117.246L42.7286 118.013C42.1558 117.608 41.4604 117.406 40.6425 117.406C40.017 117.406 39.5468 117.523 39.229 117.756C38.9127 117.99 38.7531 118.291 38.7531 118.661C38.7531 118.943 38.8414 119.17 39.0167 119.341C39.192 119.513 39.4143 119.643 39.6836 119.73C39.9514 119.818 40.3148 119.915 40.7722 120.021C41.3265 120.153 41.7753 120.283 42.1187 120.41C42.4621 120.538 42.7542 120.737 42.9965 121.011C43.2387 121.285 43.3598 121.649 43.3598 122.107C43.3598 122.741 43.1062 123.251 42.6003 123.638C42.0945 124.026 41.3835 124.22 40.4687 124.22C39.8987 124.217 39.3516 124.132 38.8272 123.959Z"></path>
<path fill="white" d="M49.9698 122.209H45.7834L44.9113 124.137H43.9609L47.4078 116.677H48.3454L51.7922 124.137H50.8418L49.9698 122.209ZM49.6264 121.444L47.8837 117.576L46.1282 121.444H49.6264Z"></path>
<path fill="white" d="M53.2148 116.677H54.1653V124.138H53.2148V116.677Z"></path>
<path fill="white" d="M56.9375 116.677H57.8879V123.346H62.0472V124.138H56.9375V116.677Z"></path>
<path fill="white" d="M63.8467 123.959C63.3224 123.787 62.9106 123.562 62.6113 123.279L63.0075 122.54C63.2896 122.795 63.6572 123.004 64.1103 123.167C64.5635 123.329 65.0322 123.411 65.5167 123.411C66.1679 123.411 66.6495 123.297 66.963 123.067C67.2751 122.838 67.4318 122.544 67.4318 122.182C67.4318 121.9 67.3434 121.674 67.1682 121.503C66.9915 121.332 66.7721 121.2 66.5085 121.114C66.2448 121.025 65.8872 120.928 65.4383 120.823C64.8755 120.69 64.421 120.559 64.079 120.427C63.737 120.294 63.4435 120.09 63.2012 119.813C62.959 119.535 62.8379 119.164 62.8379 118.697C62.8379 118.071 63.0887 117.564 63.5902 117.172C64.0918 116.78 64.7914 116.585 65.6891 116.585C66.138 116.585 66.5754 116.642 67.0029 116.758C67.4304 116.872 67.7923 117.035 68.0915 117.246L67.7481 118.013C67.1753 117.608 66.48 117.406 65.6621 117.406C65.0365 117.406 64.5663 117.523 64.2486 117.756C63.9322 117.99 63.7726 118.291 63.7726 118.661C63.7726 118.943 63.861 119.17 64.0362 119.341C64.2115 119.513 64.4338 119.643 64.7031 119.73C64.971 119.818 65.3343 119.915 65.7917 120.021C66.346 120.153 66.7949 120.283 67.1383 120.41C67.4817 120.538 67.7738 120.737 68.016 121.011C68.2582 121.285 68.3794 121.649 68.3794 122.107C68.3794 122.741 68.1257 123.251 67.6199 123.638C67.114 124.026 66.403 124.22 65.4882 124.22C64.9183 124.217 64.3697 124.132 63.8467 123.959Z"></path>
<path fill="white" d="M80.8526 124.137V118.394L78 123.2H77.564L74.7113 118.473V124.137H73.8008V116.677H74.6201L77.7891 122.024L80.9453 116.677H81.7646L81.7774 124.137H80.8526Z"></path>
<path fill="white" d="M85.7634 123.721C85.1521 123.391 84.6719 122.936 84.3243 122.355C83.9766 121.773 83.8027 121.122 83.8027 120.401C83.8027 119.689 83.9766 119.042 84.3243 118.46C84.6719 117.879 85.1521 117.422 85.7634 117.087C86.3747 116.752 87.0558 116.585 87.8039 116.585C88.5605 116.585 89.243 116.75 89.85 117.081C90.457 117.412 90.9344 117.869 91.2821 118.455C91.6297 119.04 91.8036 119.69 91.8036 120.403C91.8036 121.125 91.6297 121.776 91.2821 122.356C90.9344 122.937 90.457 123.392 89.85 123.723C89.243 124.053 88.5605 124.217 87.8039 124.217C87.0544 124.217 86.3747 124.052 85.7634 123.721ZM89.3613 123.009C89.8272 122.749 90.1934 122.393 90.457 121.939C90.7207 121.485 90.8532 120.977 90.8532 120.414C90.8532 119.841 90.7207 119.33 90.457 118.875C90.1934 118.422 89.8272 118.066 89.3613 117.805C88.8939 117.546 88.3753 117.416 87.8039 117.416C87.2311 117.416 86.7124 117.546 86.2465 117.805C85.7791 118.064 85.4143 118.42 85.1507 118.875C84.8871 119.328 84.7546 119.841 84.7546 120.414C84.7546 120.977 84.8871 121.485 85.1507 121.939C85.4143 122.392 85.7805 122.748 86.2465 123.009C86.7124 123.268 87.2325 123.398 87.8039 123.398C88.3753 123.398 88.8939 123.268 89.3613 123.009Z"></path>
<path fill="white" d="M99.8585 120.923C100.118 121.235 100.248 121.638 100.248 122.131C100.248 122.774 100.004 123.268 99.5151 123.616C99.0264 123.963 98.3068 124.137 97.3564 124.137H93.8184V116.677H97.1455C97.999 116.677 98.6616 116.843 99.1333 117.178C99.6035 117.513 99.84 117.983 99.84 118.592C99.84 118.996 99.7431 119.343 99.5493 119.627C99.3555 119.914 99.082 120.132 98.73 120.282C99.2216 120.397 99.5978 120.611 99.8585 120.923ZM94.7673 117.417V119.992H97.0643C97.6542 119.992 98.1073 119.883 98.4237 119.662C98.74 119.442 98.8996 119.12 98.8996 118.698C98.8996 118.275 98.7414 117.958 98.4237 117.741C98.1073 117.526 97.6528 117.417 97.0643 117.417H94.7673ZM99.2829 122.064C99.2829 121.607 99.1176 121.27 98.7884 121.054C98.4579 120.839 97.9677 120.73 97.3165 120.73H94.7688V123.398H97.3165C98.6274 123.398 99.2829 122.953 99.2829 122.064Z"></path>
<path fill="white" d="M102.244 116.677H103.195V124.138H102.244V116.677Z"></path>
<path fill="white" d="M105.957 116.677H106.907V123.346H111.067V124.138H105.957V116.677Z"></path>
<path fill="white" d="M112.564 116.677H113.515V124.138H112.564V116.677Z"></path>
<path fill="white" d="M117.585 117.469H114.957V116.677H121.162V117.469H118.535V124.138H117.585V117.469Z"></path>
<path fill="white" d="M125.285 121.708V124.137H124.347V121.681L121.258 116.677H122.275L124.837 120.796L127.399 116.677H128.377L125.285 121.708Z"></path>
<path fill="white" d="M89.5052 50.4941C89.4852 50.4827 89.4582 50.4713 89.4297 50.4599C89.4126 50.4542 89.3955 50.45 89.3798 50.4428C89.3627 50.4357 89.3456 50.43 89.3299 50.4229C89.2957 50.4115 89.2629 50.3987 89.2302 50.3844C89.1418 50.3502 89.0592 50.3232 88.9765 50.2989C88.8383 50.2419 88.7015 50.1963 88.5633 50.1579C88.3296 50.0781 88.0959 50.0097 87.8551 49.947C86.4616 49.5794 85.0566 49.3941 83.6474 49.3556C82.9706 49.3357 82.2923 49.3514 81.6126 49.3984C81.3775 49.4141 81.1424 49.4326 80.9059 49.4554C78.5804 49.6891 76.255 50.373 73.9566 51.3648C73.5933 51.5201 73.2285 51.6811 72.8651 51.8464C70.9899 52.6913 69.1162 53.6389 67.2553 54.5366C67.2182 54.5551 67.1826 54.5736 67.1456 54.5907C66.0213 55.1351 64.8956 55.6936 63.7756 56.2565C63.4892 56.399 63.2028 56.5443 62.9179 56.6868C62.0843 57.1057 61.255 57.5246 60.4314 57.9364C58.2014 59.0635 55.9928 60.1522 53.8327 61.1268C49.471 63.0932 45.1991 64.5508 41.0156 64.9783C41.0641 65.1094 41.1325 65.2291 41.1809 65.3659C45.5497 65.5753 49.9184 64.6477 54.3071 63.3425C56.4887 62.6814 58.6702 61.9005 60.8788 61.1254C61.2065 61.0057 61.5357 60.886 61.8649 60.7649C62.2667 60.6167 62.6713 60.4699 63.076 60.3217C63.4436 60.1878 63.8127 60.0538 64.1803 59.9199C65.2775 59.5223 66.3761 59.1319 67.4761 58.7543C67.9734 58.5833 68.4707 58.4223 68.9694 58.2699C70.6807 57.7469 72.3949 57.3266 74.1219 56.9646C75.1207 56.7538 76.1253 56.5429 77.1313 56.332C78.3482 56.0784 79.5679 55.8276 80.789 55.5811C83.0176 55.1365 85.2946 54.7831 87.593 54.5893C87.9506 54.5551 88.3083 54.5323 88.6602 54.5095C89.4368 54.4468 90.0495 53.951 90.1321 53.3069L90.1806 52.9136L90.3245 51.768C90.3929 51.2465 90.0637 50.7392 89.5052 50.4941Z"></path>
<path fill="white" d="M90.4943 42.0152C90.3775 41.9753 90.2606 41.9411 90.1367 41.9083C90.074 41.8912 90.0127 41.8741 89.95 41.857C89.8545 41.8285 89.7576 41.8 89.6622 41.7772C89.4755 41.7316 89.2903 41.686 89.105 41.6461C87.5048 41.2699 85.8776 41.1517 84.2561 41.2272H84.2489C83.6833 41.2514 83.119 41.3013 82.5547 41.3725C81.268 41.5449 79.9828 41.8513 78.7032 42.2773C77.5376 42.6307 76.4105 43.0596 75.3276 43.5612C74.4755 43.9545 73.6519 44.3919 72.8597 44.8707C71.8879 45.368 70.9204 45.8767 69.9614 46.3725C69.8374 46.4366 69.7149 46.5008 69.5924 46.5635C68.4268 47.1804 67.2584 47.8103 66.0971 48.4429C65.6753 48.6723 65.2535 48.9032 64.8332 49.134C64.296 49.4304 63.7602 49.7267 63.2287 50.0217C61.117 51.2129 59.0324 52.3985 56.9606 53.527C52.8326 55.8011 48.7674 57.7832 44.8047 59.0884C44.846 59.2252 44.893 59.3563 44.9215 59.4916C49.0979 58.8305 53.2316 57.4127 57.388 55.7997C59.4727 55.0032 61.5431 54.124 63.6277 53.2933C63.7289 53.252 63.8315 53.2092 63.9326 53.1679C64.2205 53.0482 64.5097 52.9299 64.799 52.8102C65.3875 52.5694 65.9774 52.3272 66.5673 52.0907C67.6673 51.6461 68.7702 51.2129 69.8745 50.804C70.5029 50.576 71.1313 50.3651 71.7596 50.1656C73.223 49.7025 74.685 49.3135 76.1426 48.9758C77.3624 48.7037 78.5892 48.4187 79.8175 48.1294C80.6966 47.9228 81.5772 47.7105 82.4578 47.4996C84.571 47.0152 86.6827 46.582 88.8699 46.2514C89.2561 46.1901 89.6408 46.1374 90.0198 46.0861C90.0683 46.0761 90.1082 46.069 90.1566 46.0633C90.6667 46.0006 91.0657 45.6643 91.1127 45.2369L91.3193 43.4885L91.3535 43.1921C91.4162 42.6834 91.0657 42.2047 90.4943 42.0152Z"></path>
<path fill="white" d="M91.8413 33.7199C91.8142 33.7085 91.7857 33.6957 91.7587 33.6914C91.2842 33.549 90.8097 33.4293 90.3423 33.3438C88.5127 32.9733 86.6888 32.9377 84.845 33.15C84.8422 33.15 84.8393 33.1514 84.8365 33.1514C84.6441 33.1728 84.4517 33.197 84.2594 33.2255C83.4771 33.3366 82.6977 33.5076 81.9183 33.7299C81.4979 33.851 81.0776 33.985 80.6572 34.1332C79.8393 34.4224 79.0214 34.7644 78.205 35.1505C76.6319 35.9157 75.063 36.7621 73.4956 37.6085C73.1209 37.8123 72.7461 38.0146 72.3714 38.2155C72.3187 38.244 72.2659 38.2725 72.2132 38.301C71.0533 38.9422 69.8906 39.6048 68.7265 40.2788C68.1565 40.6065 67.588 40.9399 67.018 41.2748C66.7772 41.4159 66.5364 41.5583 66.2956 41.7008C64.3492 42.8864 62.4013 44.1118 60.4763 45.2973C56.6233 47.6897 52.8245 49.9852 49.0898 51.8718C49.1369 52.0257 49.1582 52.1611 49.2067 52.2993C53.1067 51.0739 56.9525 49.3583 60.8539 47.6484C62.6279 46.8476 64.419 46.024 66.1944 45.246C66.3469 45.1776 66.5008 45.1106 66.6532 45.0437C66.6547 45.0437 66.6547 45.0422 66.6561 45.0422C67.5182 44.6646 68.3774 44.2899 69.2352 43.9251C70.3138 43.4663 71.3911 43.0232 72.474 42.6114C73.0625 42.3819 73.6524 42.1725 74.2423 41.9787C75.6002 41.5313 76.9596 41.1693 78.3218 40.8445C80.2411 40.3928 82.1961 39.8926 84.1639 39.3626C84.6698 39.2229 85.1784 39.0876 85.6886 38.9565C87.1505 38.5817 88.6281 38.2426 90.1072 37.9263C90.4449 37.8579 90.7684 37.7895 91.0989 37.7211C91.2015 37.6983 91.3112 37.6755 91.4153 37.6527C91.7929 37.5672 92.0821 37.2993 92.1163 36.9687L92.1434 36.7308L92.3913 34.6105C92.4056 34.5592 92.4127 34.5079 92.4127 34.4509C92.4127 34.1232 92.179 33.8439 91.8413 33.7199Z"></path>
<path fill="white" d="M92.8697 25.3204H92.8626C92.807 25.3033 92.7528 25.2919 92.6973 25.2805C92.6901 25.2734 92.683 25.2734 92.6759 25.2734C92.3125 25.1836 91.9406 25.1024 91.5687 25.0354C90.4089 24.8402 89.249 24.7761 88.082 24.8302C88.082 24.8302 88.082 24.8302 88.0806 24.8302C87.4066 24.8601 86.7312 24.9285 86.0515 25.0354C84.6294 25.2477 83.196 25.6837 81.7654 26.2879C80.2407 26.845 78.7902 27.5361 77.4308 28.3483C76.8666 28.6846 76.3165 29.0437 75.785 29.4198C75.5528 29.5495 75.322 29.6777 75.0911 29.806C73.7332 30.5626 72.3909 31.3534 71.0401 32.1699C70.5913 32.4421 70.1424 32.7142 69.6907 32.9921C69.6637 33.0092 69.6352 33.0263 69.6081 33.0448C67.8469 34.1762 66.1199 35.3232 64.3587 36.4888C60.8364 38.8655 57.3624 41.2352 53.9355 43.4523C53.9626 43.6062 54.0039 43.743 54.0324 43.9026C57.5961 42.3822 61.1456 40.6139 64.6893 38.9225C65.9133 38.3283 68.2929 37.2112 68.8201 36.9661C68.8842 36.9348 68.9213 36.9177 68.9256 36.9163C69.155 36.5144 69.3986 36.1197 69.6537 35.7307C69.3986 36.1183 69.155 36.513 68.9256 36.9163C69.2804 36.7524 69.6366 36.5914 69.9928 36.4318C70.5272 36.191 71.0629 35.9502 71.6001 35.7165C72.8341 35.175 74.0709 34.6592 75.2977 34.199C76.7611 33.6162 78.243 33.1844 79.7235 32.8182C80.0256 32.7441 80.3277 32.6729 80.6297 32.6031C82.3909 32.1756 84.1735 31.7082 85.9617 31.1625C87.7443 30.6381 89.5254 30.1138 91.355 29.6065C91.6927 29.5167 92.0361 29.4184 92.3809 29.3215C92.3952 29.3144 92.4151 29.3144 92.4294 29.3101C92.4835 29.293 92.5391 29.2759 92.5947 29.2645C92.7044 29.2203 92.7942 29.169 92.8697 29.1064C92.9993 29.0152 93.082 28.8955 93.1233 28.7473V28.7416C93.1233 28.7345 93.1304 28.7245 93.1304 28.7174V28.6889C93.1376 28.6447 93.1447 28.5991 93.1447 28.5478L93.4268 26.2508C93.4268 26.2451 93.4339 26.2337 93.4339 26.228V26.1995C93.4396 26.1554 93.4468 26.1098 93.4468 26.0585C93.4468 25.7265 93.2131 25.4472 92.8697 25.3204Z"></path>
<path fill="white" d="M88.4667 58.9731C88.1504 58.8307 87.8412 58.7038 87.5248 58.5856C87.3667 58.5286 87.2156 58.4716 87.0632 58.4203C86.9121 58.3633 86.7611 58.3177 86.61 58.2664C84.8346 57.7093 83.0449 57.4485 81.2524 57.4157C80.6041 57.4057 79.9572 57.4243 79.3103 57.4684C79.1136 57.4827 78.917 57.4998 78.7203 57.5212C77.5533 57.6437 76.3849 57.8745 75.2179 58.188C75.2136 58.1894 75.2108 58.1909 75.2065 58.1909C73.4168 58.6326 71.7055 59.2538 70.0997 60.0318C70.007 60.076 69.9144 60.1216 69.8218 60.1686C69.8175 60.1701 69.8147 60.1729 69.8104 60.1758C68.1746 60.8825 66.5474 61.6277 64.9173 62.3359C64.8874 62.3487 64.856 62.3616 64.8261 62.3758C63.7546 62.8446 62.6844 63.322 61.6186 63.7965C61.4434 63.8734 61.2695 63.9518 61.0957 64.0287C60.0313 64.4989 58.9711 64.9635 57.9196 65.408C55.5941 66.3998 53.3171 67.3117 51.0672 68.0284C46.5331 69.5103 42.096 70.2285 37.8027 69.4704C37.8512 69.6072 37.8925 69.7426 37.968 69.8566C42.495 71.2359 47.029 71.0421 51.583 70.2099C53.8614 69.7754 56.1384 69.1783 58.4154 68.5343C58.8956 68.3932 59.3758 68.2479 59.8546 68.1011C60.1795 68.0028 60.5029 67.903 60.8264 67.8019C61.1854 67.6921 61.5431 67.581 61.9008 67.4713C63.0293 67.1193 64.1592 66.7717 65.2949 66.4368C65.6796 66.3214 66.0657 66.2117 66.4533 66.1048C68.3727 65.5733 70.3034 65.143 72.2171 64.7996C72.8754 64.6827 73.5308 64.5673 74.1877 64.4519C75.8506 64.1612 77.5106 63.8734 79.1934 63.5913C81.5388 63.2222 83.9127 62.9928 86.3279 62.9529C86.7269 62.9429 87.1187 62.9358 87.5248 62.9358C88.1945 62.9358 88.7688 62.5881 89.0039 62.0937C89.0395 62.0196 89.068 61.9412 89.0865 61.86L89.0937 61.8315L89.1122 61.6733L89.1321 61.5081L89.2233 60.7571L89.2789 60.2556C89.3416 59.7369 89.0238 59.2296 88.4667 58.9731Z"></path>
<path fill="white" d="M93.8617 16.9855C93.799 16.9627 93.7377 16.9513 93.675 16.9399C93.38 16.8658 93.0908 16.8088 92.7887 16.7575C91.74 16.5822 90.6841 16.5267 89.6311 16.5822C87.1732 16.9413 84.8349 17.631 82.6719 18.6028C81.4522 19.2269 80.2567 19.9151 79.0569 20.5919C78.7577 20.7615 78.4599 20.9282 78.1606 21.0935C77.4795 21.4825 76.7984 21.8843 76.1173 22.2947C75.2025 22.8447 74.2877 23.4104 73.3729 23.9889C72.8215 24.3451 72.2715 24.707 71.7229 25.0747C70.687 25.7658 69.6554 26.4754 68.6252 27.1978C65.4818 29.4135 62.3584 31.6934 59.3105 33.9675C59.3305 34.1214 59.3519 34.2739 59.3789 34.4349C62.5707 32.8803 65.7155 31.226 68.8603 29.7056C69.6012 29.3522 70.3379 29.0074 71.0731 28.6654C71.2541 28.5799 71.4351 28.4959 71.616 28.4132C72.28 28.1069 72.944 27.8062 73.6066 27.5113C74.6482 27.0453 75.6941 26.5979 76.74 26.179C77.2686 25.9667 77.7973 25.7629 78.3259 25.5677C79.8947 24.9635 81.4906 24.576 83.0666 24.2226C84.6425 23.8749 86.2113 23.4474 87.7859 22.9231C89.3832 22.393 90.9791 21.8515 92.5949 21.2887C92.8984 21.1818 93.2005 21.0721 93.504 20.9581C93.551 20.941 93.5995 20.9239 93.6479 20.9011C93.7235 20.8669 93.799 20.8213 93.8545 20.7757C93.9928 20.6731 94.0811 20.5477 94.1153 20.3896C94.1224 20.3654 94.1296 20.344 94.1296 20.3198L94.4331 17.8931V17.8646C94.4388 17.8205 94.4459 17.7749 94.4459 17.7236C94.4459 17.3902 94.2122 17.1052 93.8617 16.9855Z"></path>
<path fill="white" d="M94.8709 8.66617C94.8011 8.64907 94.7398 8.63197 94.6715 8.62057C94.4435 8.56358 94.2169 8.51798 93.9832 8.47238C92.5925 8.2387 91.2104 8.2387 89.7997 8.45529C89.7712 8.45956 89.7427 8.46383 89.7142 8.46953C88.6783 8.71034 87.668 9.01242 86.6877 9.36865C86.3315 9.52254 85.9767 9.68925 85.6233 9.87307C84.2126 10.6083 82.8305 11.4462 81.4412 12.227C80.8613 12.5576 80.2771 12.8981 79.6928 13.2487C78.9049 13.7189 78.1155 14.2048 77.3332 14.6949C77.1921 14.7861 77.0511 14.8788 76.91 14.97C75.6732 15.7807 74.452 16.6228 73.2537 17.492C70.5293 19.4399 67.8533 21.4804 65.1973 23.6006C65.2172 23.7759 65.2457 23.9312 65.2657 24.0851C68.0172 22.7229 70.7145 21.345 73.4389 20.1025C73.5885 20.0341 73.7382 19.9657 73.8863 19.8987C74.6487 19.5539 75.4081 19.2162 76.1633 18.8913C76.6108 18.6989 77.0568 18.5108 77.4985 18.3299C78.8607 17.7642 80.2229 17.2413 81.5652 16.7739C82.9202 16.2894 84.2825 16.0158 85.6233 15.7437C86.9855 15.4744 88.3206 15.1053 89.6829 14.6152C91.0451 14.115 92.4286 13.5892 93.8179 12.9851C94.0516 12.8825 94.2924 12.7799 94.5332 12.6659C94.6088 12.6317 94.6914 12.5918 94.7669 12.5519C94.8011 12.5348 94.8296 12.512 94.8567 12.4892C94.9949 12.3866 95.0832 12.2612 95.1174 12.103C95.1246 12.0788 95.1317 12.0574 95.1317 12.0347L95.4409 9.57241C95.4551 9.52111 95.4623 9.46554 95.4623 9.40712C95.4623 9.07654 95.2286 8.78586 94.8709 8.66617Z"></path>
<path fill="white" d="M95.8663 0.38476C95.6312 0.30639 95.3976 0.267916 95.1867 0.209495C94.0596 -0.0241897 92.9325 -0.0612362 91.7811 0.0926537C90.654 0.229445 89.5041 0.638393 88.3542 1.25965C87.5363 1.6971 86.717 2.19724 85.8991 2.67601C85.5914 2.85697 85.2822 3.03366 84.9729 3.20465C83.8458 3.84586 82.7187 4.52554 81.5931 5.22659C80.466 5.94617 79.3617 6.70422 78.2346 7.50074C76.0288 9.09664 73.8216 10.788 71.6387 12.5962C71.6615 12.77 71.6857 12.9467 71.6857 13.1006C73.9385 12.1089 76.1699 11.0787 78.3756 10.2038C78.6264 10.104 78.8772 10.0057 79.1251 9.90741C79.9943 9.5697 80.8521 9.24483 81.7099 8.95985C82.8128 8.5509 83.9399 8.18185 85.0442 7.85127C86.1471 7.50074 87.2499 7.34685 88.3542 7.17016C89.4571 6.99633 90.5614 6.70279 91.6643 6.2568C92.7914 5.80938 93.8943 5.30496 95.0456 4.70222C95.2323 4.60533 95.3976 4.50844 95.5614 4.3916C95.6783 4.3517 95.7723 4.27475 95.8663 4.21633C96.0544 4.07954 96.1485 3.88575 96.1485 3.65207L96.4534 1.12429C96.4534 0.793708 96.2183 0.501602 95.8663 0.38476Z"></path>
<path fill="white" d="M84.8079 75.2905C84.6426 75.2079 84.4773 75.1295 84.312 75.054C84.2351 75.0184 84.1567 74.9842 84.0797 74.95C82.9484 74.457 81.8184 74.0893 80.6885 73.83C80.687 73.83 80.6856 73.8286 80.6842 73.8286C79.1439 73.555 77.5537 73.4097 75.9264 73.4097C74.9461 73.4097 73.9786 73.4624 73.0268 73.565C72.7332 73.5949 72.4397 73.632 72.149 73.6719C72.1462 73.6719 72.1447 73.6733 72.1419 73.6733C70.9635 73.8799 69.7908 74.1649 68.6266 74.5054C67.6378 74.8018 66.656 75.1167 65.6785 75.4402C65.4762 75.5057 65.2724 75.5741 65.0701 75.6411C63.752 76.0771 62.4426 76.516 61.1416 76.9164C60.7797 77.0261 60.4178 77.1344 60.0573 77.2427C59.0014 77.5576 57.9541 77.8568 56.9125 78.1347C56.8127 78.1603 56.7144 78.1845 56.6147 78.2116C55.6685 78.4581 54.7281 78.6818 53.7934 78.8756C51.3725 79.4228 48.9772 79.7362 46.6318 79.6949C41.9325 79.6565 37.3371 78.1803 32.9199 74.2489C32.9883 74.3857 33.0581 74.5225 33.1337 74.6422C37.8259 79.1891 42.5252 81.1327 47.2644 81.7767C49.6383 82.0902 52.0051 82.066 54.399 81.8907C54.6269 81.8708 54.8549 81.848 55.0829 81.8252C55.67 81.7653 56.257 81.6983 56.8469 81.6214C56.8484 81.6214 56.8484 81.6214 56.8498 81.6214C58.3317 81.4319 59.8236 81.1954 61.3268 80.9431C61.4138 80.9275 61.5021 80.9118 61.589 80.8975C63.9587 80.5185 66.3325 80.1936 68.7221 80.0141C68.7691 80.0098 68.8147 80.007 68.8618 80.0041C71.2827 79.7933 73.725 79.5767 76.2086 79.4399C78.4457 79.3373 80.717 79.3416 83.0267 79.5895C83.1949 79.6066 83.3616 79.6251 83.5297 79.6465C83.5796 79.6508 83.6309 79.6536 83.6822 79.6536C83.7079 79.6536 83.7335 79.6536 83.7591 79.6522C83.7748 79.6508 83.7905 79.6493 83.8076 79.6479C83.8261 79.6465 83.8446 79.6451 83.8632 79.6422C83.8803 79.6408 83.8974 79.6379 83.9145 79.6351C83.9601 79.628 84.0042 79.6194 84.047 79.608C84.3533 79.5453 84.6369 79.4242 84.8834 79.2518C85.1898 79.0366 85.3907 78.7046 85.4705 78.3384L85.7398 77.0945C85.8096 76.7767 85.7725 76.439 85.6172 76.1526C85.4249 75.8007 85.1456 75.5029 84.8079 75.2905Z"></path>
<path fill="white" d="M86.904 67.2808C86.9012 67.2779 86.8969 67.2765 86.8941 67.2751C86.8798 67.268 86.8656 67.2637 86.8599 67.2566C86.6119 67.144 86.364 67.03 86.1232 66.926C86.1161 66.9217 86.1089 66.916 86.1018 66.916C85.8482 66.8077 85.6002 66.7051 85.3452 66.6082C83.1537 65.7918 80.9408 65.437 78.7436 65.4256C78.4244 65.4213 78.1038 65.4284 77.7846 65.4398C77.1577 65.4598 76.5293 65.5111 75.9023 65.5923C75.8938 65.5937 75.8838 65.5937 75.8753 65.5951C75.8126 65.6023 75.7513 65.6094 75.6886 65.6165C72.8032 65.9628 70.073 66.7636 67.5866 67.9405C67.5068 67.9776 67.427 68.016 67.3472 68.0545C67.3472 68.0545 67.3458 68.0559 67.3443 68.0559C65.8624 68.6316 64.3848 69.2258 62.9243 69.7758C62.7718 69.8328 62.6179 69.8912 62.4655 69.9468C61.4652 70.3244 60.472 70.6991 59.486 71.0596C59.2537 71.1451 59.0215 71.2306 58.7892 71.3133C57.759 71.6895 56.7345 72.05 55.7128 72.3862C53.319 73.1828 50.9736 73.8439 48.6481 74.2315C44.0243 75.0465 39.4703 74.773 35.1016 72.5558C35.15 72.6926 35.2184 72.8137 35.2669 72.9491C39.9177 75.7647 44.5686 76.5441 49.2395 76.3503C51.5578 76.2549 53.9103 75.9015 56.2572 75.4569C56.6433 75.3771 57.0309 75.2945 57.4184 75.209C57.8701 75.1107 58.3233 75.0095 58.7778 74.904C59.0514 74.8413 59.3264 74.7787 59.6014 74.7131C60.8468 74.4224 62.0964 74.1189 63.3432 73.8211C63.5441 73.7727 63.745 73.7256 63.9459 73.6801C66.1047 73.1828 68.2948 72.7852 70.4848 72.4831C70.8254 72.4361 71.1674 72.3891 71.5093 72.3406C73.547 72.0585 75.6002 71.7821 77.6678 71.5484C80.083 71.2976 82.5253 71.1765 85.0431 71.3147C85.2497 71.3247 85.4592 71.3361 85.6701 71.3489C85.7385 71.3532 85.8069 71.3575 85.8767 71.3617C85.9223 71.3646 85.9664 71.3674 86.012 71.3717C86.5749 71.3361 87.0422 70.9457 87.1933 70.4213L87.2289 70.2574C87.2303 70.2546 87.2303 70.2532 87.2289 70.2517L87.568 68.7C87.692 68.1315 87.427 67.5373 86.904 67.2808Z"></path>
</svg>
